<svg width="1657" height="1312" viewBox="0 0 1657 1312" fill="none" xmlns="http://www.w3.org/2000/svg">
<rect width="1657" height="1312" fill="#E5E5E5"/>
<path d="M662.311 495.156C662.741 490.597 663 485.997 663 481.356C662.999 467.047 660.896 452.808 656.752 439.054L638.008 439.916L629.39 417.41L641.498 404.801C631.572 388.395 618.574 373.862 603.148 361.924L588.369 372.849L567.772 359.131L570.142 342.169C552.169 334.107 532.779 329.303 512.962 328L507.403 345.044H482.282L474.009 329.848C445.061 334.641 418.043 346.898 395.887 365.292L404.505 381.063L386.752 397.984L369.516 392.85C358.038 408.306 349.666 425.657 344.826 444.023L361.545 452.237L357.236 475.812L340 480.945C340 480.945 340 481.192 340 481.315C339.995 500.133 343.632 518.79 350.729 536.349L369.344 533.926L379.944 555.611L369.042 569.164C380.407 584.698 394.661 598.117 411.098 608.756L424.844 596.435L446.604 608.428L445.828 625.595C463.629 631.833 482.448 635.017 501.414 635H504.128L508.093 617.545L533.128 615.45L542.78 629.907C561.979 625.04 580.066 616.824 596.125 605.676L588.886 589.248L608.147 573.846L624.693 580.376C637.525 565.914 647.444 549.317 653.951 531.421L638.094 521.893L644.601 498.77L662.311 495.156ZM501.586 596.517C477.724 596.517 454.397 589.773 434.556 577.137C414.715 564.501 399.251 546.541 390.119 525.528C380.987 504.515 378.598 481.393 383.253 459.086C387.909 436.779 399.4 416.288 416.273 400.206C433.146 384.123 454.644 373.171 478.048 368.733C501.452 364.296 525.711 366.574 547.757 375.277C569.803 383.981 588.646 398.721 601.904 417.632C615.161 436.543 622.237 458.776 622.237 481.52C622.158 511.996 609.421 541.202 586.811 562.752C564.202 584.301 533.56 596.441 501.586 596.517V596.517Z" fill="#00629B"/>
<path d="M459.078 491.352H474.008V497H452.047V462.875H459.078V491.352ZM484.766 497H477.969V471.641H484.766V497ZM477.57 465.078C477.57 464.062 477.906 463.227 478.578 462.57C479.266 461.914 480.195 461.586 481.367 461.586C482.523 461.586 483.445 461.914 484.133 462.57C484.82 463.227 485.164 464.062 485.164 465.078C485.164 466.109 484.812 466.953 484.109 467.609C483.422 468.266 482.508 468.594 481.367 468.594C480.227 468.594 479.305 468.266 478.602 467.609C477.914 466.953 477.57 466.109 477.57 465.078ZM504.102 489.992C504.102 489.164 503.688 488.516 502.859 488.047C502.047 487.562 500.734 487.133 498.922 486.758C492.891 485.492 489.875 482.93 489.875 479.07C489.875 476.82 490.805 474.945 492.664 473.445C494.539 471.93 496.984 471.172 500 471.172C503.219 471.172 505.789 471.93 507.711 473.445C509.648 474.961 510.617 476.93 510.617 479.352H503.844C503.844 478.383 503.531 477.586 502.906 476.961C502.281 476.32 501.305 476 499.977 476C498.836 476 497.953 476.258 497.328 476.773C496.703 477.289 496.391 477.945 496.391 478.742C496.391 479.492 496.742 480.102 497.445 480.57C498.164 481.023 499.367 481.422 501.055 481.766C502.742 482.094 504.164 482.469 505.32 482.891C508.898 484.203 510.688 486.477 510.688 489.711C510.688 492.023 509.695 493.898 507.711 495.336C505.727 496.758 503.164 497.469 500.023 497.469C497.898 497.469 496.008 497.094 494.352 496.344C492.711 495.578 491.422 494.539 490.484 493.227C489.547 491.898 489.078 490.469 489.078 488.938H495.5C495.562 490.141 496.008 491.062 496.836 491.703C497.664 492.344 498.773 492.664 500.164 492.664C501.461 492.664 502.438 492.422 503.094 491.938C503.766 491.438 504.102 490.789 504.102 489.992ZM523.18 465.406V471.641H527.516V476.609H523.18V489.266C523.18 490.203 523.359 490.875 523.719 491.281C524.078 491.688 524.766 491.891 525.781 491.891C526.531 491.891 527.195 491.836 527.773 491.727V496.859C526.445 497.266 525.078 497.469 523.672 497.469C518.922 497.469 516.5 495.07 516.406 490.273V476.609H512.703V471.641H516.406V465.406H523.18ZM529.531 484.086C529.531 481.57 530.016 479.328 530.984 477.359C531.953 475.391 533.344 473.867 535.156 472.789C536.984 471.711 539.102 471.172 541.508 471.172C544.93 471.172 547.719 472.219 549.875 474.312C552.047 476.406 553.258 479.25 553.508 482.844L553.555 484.578C553.555 488.469 552.469 491.594 550.297 493.953C548.125 496.297 545.211 497.469 541.555 497.469C537.898 497.469 534.977 496.297 532.789 493.953C530.617 491.609 529.531 488.422 529.531 484.391V484.086ZM536.305 484.578C536.305 486.984 536.758 488.828 537.664 490.109C538.57 491.375 539.867 492.008 541.555 492.008C543.195 492.008 544.477 491.383 545.398 490.133C546.32 488.867 546.781 486.852 546.781 484.086C546.781 481.727 546.32 479.898 545.398 478.602C544.477 477.305 543.18 476.656 541.508 476.656C539.852 476.656 538.57 477.305 537.664 478.602C536.758 479.883 536.305 481.875 536.305 484.578Z" fill="black"/>
<path d="M1409.31 369.156C1409.74 364.597 1410 359.997 1410 355.356C1410 341.047 1407.9 326.808 1403.75 313.054L1385.01 313.916L1376.39 291.41L1388.5 278.801C1378.57 262.395 1365.57 247.862 1350.15 235.924L1335.37 246.849L1314.77 233.131L1317.14 216.169C1299.17 208.107 1279.78 203.303 1259.96 202L1254.4 219.044H1229.28L1221.01 203.848C1192.06 208.641 1165.04 220.898 1142.89 239.292L1151.51 255.063L1133.75 271.984L1116.52 266.85C1105.04 282.306 1096.67 299.657 1091.83 318.023L1108.54 326.237L1104.24 349.812L1087 354.945C1087 354.945 1087 355.192 1087 355.315C1086.99 374.133 1090.63 392.79 1097.73 410.349L1116.34 407.926L1126.94 429.611L1116.04 443.164C1127.41 458.698 1141.66 472.117 1158.1 482.756L1171.84 470.435L1193.6 482.428L1192.83 499.595C1210.63 505.833 1229.45 509.017 1248.41 509H1251.13L1255.09 491.545L1280.13 489.45L1289.78 503.907C1308.98 499.04 1327.07 490.824 1343.12 479.676L1335.89 463.248L1355.15 447.846L1371.69 454.376C1384.53 439.914 1394.44 423.317 1400.95 405.421L1385.09 395.893L1391.6 372.77L1409.31 369.156ZM1248.59 470.517C1224.72 470.517 1201.4 463.773 1181.56 451.137C1161.72 438.501 1146.25 420.541 1137.12 399.528C1127.99 378.515 1125.6 355.393 1130.25 333.086C1134.91 310.779 1146.4 290.288 1163.27 274.206C1180.15 258.123 1201.64 247.171 1225.05 242.733C1248.45 238.296 1272.71 240.574 1294.76 249.277C1316.8 257.981 1335.65 272.721 1348.9 291.632C1362.16 310.543 1369.24 332.776 1369.24 355.52C1369.16 385.996 1356.42 415.202 1333.81 436.752C1311.2 458.301 1280.56 470.441 1248.59 470.517V470.517Z" fill="#50A700"/>
<path d="M1161.58 357.055H1148.08V371H1141.05V336.875H1163.27V342.57H1148.08V351.383H1161.58V357.055ZM1174.05 371H1167.25V345.641H1174.05V371ZM1166.85 339.078C1166.85 338.062 1167.19 337.227 1167.86 336.57C1168.55 335.914 1169.48 335.586 1170.65 335.586C1171.8 335.586 1172.73 335.914 1173.41 336.57C1174.1 337.227 1174.45 338.062 1174.45 339.078C1174.45 340.109 1174.09 340.953 1173.39 341.609C1172.7 342.266 1171.79 342.594 1170.65 342.594C1169.51 342.594 1168.59 342.266 1167.88 341.609C1167.2 340.953 1166.85 340.109 1166.85 339.078ZM1185.88 345.641L1186.09 348.57C1187.91 346.305 1190.34 345.172 1193.38 345.172C1196.07 345.172 1198.07 345.961 1199.38 347.539C1200.7 349.117 1201.37 351.477 1201.4 354.617V371H1194.62V354.781C1194.62 353.344 1194.31 352.305 1193.69 351.664C1193.06 351.008 1192.02 350.68 1190.57 350.68C1188.66 350.68 1187.23 351.492 1186.28 353.117V371H1179.51V345.641H1185.88ZM1221.25 371C1220.94 370.391 1220.71 369.633 1220.57 368.727C1218.93 370.555 1216.8 371.469 1214.17 371.469C1211.69 371.469 1209.62 370.75 1207.98 369.312C1206.36 367.875 1205.55 366.062 1205.55 363.875C1205.55 361.188 1206.54 359.125 1208.52 357.688C1210.52 356.25 1213.41 355.523 1217.17 355.508H1220.29V354.055C1220.29 352.883 1219.98 351.945 1219.38 351.242C1218.78 350.539 1217.84 350.188 1216.54 350.188C1215.4 350.188 1214.5 350.461 1213.84 351.008C1213.2 351.555 1212.88 352.305 1212.88 353.258H1206.11C1206.11 351.789 1206.56 350.43 1207.47 349.18C1208.38 347.93 1209.66 346.953 1211.31 346.25C1212.97 345.531 1214.83 345.172 1216.89 345.172C1220.02 345.172 1222.49 345.961 1224.32 347.539C1226.16 349.102 1227.09 351.305 1227.09 354.148V365.141C1227.1 367.547 1227.44 369.367 1228.09 370.602V371H1221.25ZM1215.65 366.289C1216.65 366.289 1217.57 366.07 1218.41 365.633C1219.26 365.18 1219.88 364.578 1220.29 363.828V359.469H1217.76C1214.37 359.469 1212.56 360.641 1212.34 362.984L1212.32 363.383C1212.32 364.227 1212.62 364.922 1213.21 365.469C1213.8 366.016 1214.62 366.289 1215.65 366.289ZM1239.44 371H1232.64V335H1239.44V371ZM1252.19 371H1245.39V345.641H1252.19V371ZM1244.99 339.078C1244.99 338.062 1245.33 337.227 1246 336.57C1246.69 335.914 1247.62 335.586 1248.79 335.586C1249.95 335.586 1250.87 335.914 1251.55 336.57C1252.24 337.227 1252.59 338.062 1252.59 339.078C1252.59 340.109 1252.23 340.953 1251.53 341.609C1250.84 342.266 1249.93 342.594 1248.79 342.594C1247.65 342.594 1246.73 342.266 1246.02 341.609C1245.34 340.953 1244.99 340.109 1244.99 339.078ZM1265.57 365.539H1277.97V371H1256.92V366.875L1268.85 351.125H1257.27V345.641H1277.59V349.648L1265.57 365.539ZM1296.91 371C1296.59 370.391 1296.37 369.633 1296.23 368.727C1294.59 370.555 1292.45 371.469 1289.83 371.469C1287.34 371.469 1285.28 370.75 1283.64 369.312C1282.02 367.875 1281.2 366.062 1281.2 363.875C1281.2 361.188 1282.2 359.125 1284.18 357.688C1286.18 356.25 1289.06 355.523 1292.83 355.508H1295.95V354.055C1295.95 352.883 1295.64 351.945 1295.03 351.242C1294.44 350.539 1293.49 350.188 1292.2 350.188C1291.05 350.188 1290.16 350.461 1289.5 351.008C1288.86 351.555 1288.54 352.305 1288.54 353.258H1281.77C1281.77 351.789 1282.22 350.43 1283.12 349.18C1284.03 347.93 1285.31 346.953 1286.97 346.25C1288.62 345.531 1290.48 345.172 1292.55 345.172C1295.67 345.172 1298.15 345.961 1299.98 347.539C1301.82 349.102 1302.74 351.305 1302.74 354.148V365.141C1302.76 367.547 1303.09 369.367 1303.75 370.602V371H1296.91ZM1291.3 366.289C1292.3 366.289 1293.23 366.07 1294.07 365.633C1294.91 365.18 1295.54 364.578 1295.95 363.828V359.469H1293.41C1290.02 359.469 1288.22 360.641 1288 362.984L1287.98 363.383C1287.98 364.227 1288.27 364.922 1288.87 365.469C1289.46 366.016 1290.27 366.289 1291.3 366.289ZM1306.89 358.133C1306.89 354.18 1307.77 351.031 1309.54 348.688C1311.32 346.344 1313.75 345.172 1316.83 345.172C1319.3 345.172 1321.34 346.094 1322.95 347.938V335H1329.74V371H1323.62L1323.3 368.305C1321.61 370.414 1319.44 371.469 1316.78 371.469C1313.8 371.469 1311.4 370.297 1309.59 367.953C1307.79 365.594 1306.89 362.32 1306.89 358.133ZM1313.66 358.625C1313.66 361 1314.08 362.82 1314.91 364.086C1315.73 365.352 1316.94 365.984 1318.52 365.984C1320.61 365.984 1322.09 365.102 1322.95 363.336V353.328C1322.1 351.562 1320.64 350.68 1318.56 350.68C1315.3 350.68 1313.66 353.328 1313.66 358.625ZM1333.94 358.086C1333.94 355.57 1334.42 353.328 1335.39 351.359C1336.36 349.391 1337.75 347.867 1339.56 346.789C1341.39 345.711 1343.51 345.172 1345.91 345.172C1349.34 345.172 1352.12 346.219 1354.28 348.312C1356.45 350.406 1357.66 353.25 1357.91 356.844L1357.96 358.578C1357.96 362.469 1356.88 365.594 1354.7 367.953C1352.53 370.297 1349.62 371.469 1345.96 371.469C1342.3 371.469 1339.38 370.297 1337.2 367.953C1335.02 365.609 1333.94 362.422 1333.94 358.391V358.086ZM1340.71 358.578C1340.71 360.984 1341.16 362.828 1342.07 364.109C1342.98 365.375 1344.27 366.008 1345.96 366.008C1347.6 366.008 1348.88 365.383 1349.8 364.133C1350.73 362.867 1351.19 360.852 1351.19 358.086C1351.19 355.727 1350.73 353.898 1349.8 352.602C1348.88 351.305 1347.59 350.656 1345.91 350.656C1344.26 350.656 1342.98 351.305 1342.07 352.602C1341.16 353.883 1340.71 355.875 1340.71 358.578Z" fill="black"/>
<path d="M985.311 918.156C985.741 913.597 986 908.997 986 904.356C985.999 890.047 983.896 875.808 979.752 862.054L961.008 862.916L952.39 840.41L964.498 827.801C954.572 811.395 941.574 796.862 926.148 784.924L911.369 795.849L890.772 782.131L893.142 765.169C875.169 757.107 855.779 752.303 835.962 751L830.403 768.044H805.282L797.009 752.848C768.061 757.641 741.043 769.898 718.887 788.292L727.505 804.063L709.752 820.984L692.516 815.85C681.038 831.306 672.666 848.657 667.826 867.023L684.545 875.237L680.236 898.812L663 903.945C663 903.945 663 904.192 663 904.315C662.995 923.133 666.632 941.79 673.729 959.349L692.344 956.926L702.944 978.611L692.042 992.164C703.407 1007.7 717.661 1021.12 734.098 1031.76L747.844 1019.43L769.604 1031.43L768.828 1048.59C786.629 1054.83 805.448 1058.02 824.414 1058H827.128L831.093 1040.55L856.128 1038.45L865.78 1052.91C884.979 1048.04 903.066 1039.82 919.125 1028.68L911.886 1012.25L931.147 996.846L947.693 1003.38C960.525 988.914 970.444 972.317 976.951 954.421L961.094 944.893L967.601 921.77L985.311 918.156ZM824.586 1019.52C800.724 1019.52 777.397 1012.77 757.556 1000.14C737.715 987.501 722.251 969.541 713.119 948.528C703.987 927.515 701.598 904.393 706.253 882.086C710.909 859.779 722.4 839.288 739.273 823.206C756.146 807.123 777.644 796.171 801.048 791.733C824.452 787.296 848.711 789.574 870.757 798.277C892.803 806.981 911.646 821.721 924.904 840.632C938.161 859.543 945.237 881.776 945.237 904.52C945.158 934.996 932.421 964.202 909.811 985.752C887.202 1007.3 856.56 1019.44 824.586 1019.52V1019.52Z" fill="#EB4034"/>
<path d="M712.047 921V886.875H724C728.141 886.875 731.281 887.672 733.422 889.266C735.562 890.844 736.633 893.164 736.633 896.227C736.633 897.898 736.203 899.375 735.344 900.656C734.484 901.922 733.289 902.852 731.758 903.445C733.508 903.883 734.883 904.766 735.883 906.094C736.898 907.422 737.406 909.047 737.406 910.969C737.406 914.25 736.359 916.734 734.266 918.422C732.172 920.109 729.188 920.969 725.312 921H712.047ZM719.078 906.141V915.352H725.102C726.758 915.352 728.047 914.961 728.969 914.18C729.906 913.383 730.375 912.289 730.375 910.898C730.375 907.773 728.758 906.188 725.523 906.141H719.078ZM719.078 901.172H724.281C727.828 901.109 729.602 899.695 729.602 896.93C729.602 895.383 729.148 894.273 728.242 893.602C727.352 892.914 725.938 892.57 724 892.57H719.078V901.172ZM749.406 921H742.609V885H749.406V921ZM753.953 908.086C753.953 905.57 754.438 903.328 755.406 901.359C756.375 899.391 757.766 897.867 759.578 896.789C761.406 895.711 763.523 895.172 765.93 895.172C769.352 895.172 772.141 896.219 774.297 898.312C776.469 900.406 777.68 903.25 777.93 906.844L777.977 908.578C777.977 912.469 776.891 915.594 774.719 917.953C772.547 920.297 769.633 921.469 765.977 921.469C762.32 921.469 759.398 920.297 757.211 917.953C755.039 915.609 753.953 912.422 753.953 908.391V908.086ZM760.727 908.578C760.727 910.984 761.18 912.828 762.086 914.109C762.992 915.375 764.289 916.008 765.977 916.008C767.617 916.008 768.898 915.383 769.82 914.133C770.742 912.867 771.203 910.852 771.203 908.086C771.203 905.727 770.742 903.898 769.82 902.602C768.898 901.305 767.602 900.656 765.93 900.656C764.273 900.656 762.992 901.305 762.086 902.602C761.18 903.883 760.727 905.875 760.727 908.578ZM781.094 908.086C781.094 904.102 781.977 900.953 783.742 898.641C785.523 896.328 787.961 895.172 791.055 895.172C793.773 895.172 795.938 896.211 797.547 898.289L797.992 895.641H803.945V930.75H797.148V918.82C795.586 920.586 793.539 921.469 791.008 921.469C787.992 921.469 785.586 920.297 783.789 917.953C781.992 915.609 781.094 912.32 781.094 908.086ZM787.867 908.578C787.867 911 788.289 912.844 789.133 914.109C789.992 915.375 791.195 916.008 792.742 916.008C794.82 916.008 796.289 915.18 797.148 913.523V903.047C796.305 901.453 794.852 900.656 792.789 900.656C791.227 900.656 790.016 901.289 789.156 902.555C788.297 903.82 787.867 905.828 787.867 908.578ZM824.477 918.422C822.805 920.453 820.492 921.469 817.539 921.469C814.82 921.469 812.742 920.688 811.305 919.125C809.883 917.562 809.156 915.273 809.125 912.258V895.641H815.898V912.023C815.898 914.664 817.102 915.984 819.508 915.984C821.805 915.984 823.383 915.188 824.242 913.594V895.641H831.039V921H824.664L824.477 918.422ZM847.82 921.469C844.102 921.469 841.07 920.328 838.727 918.047C836.398 915.766 835.234 912.727 835.234 908.93V908.273C835.234 905.727 835.727 903.453 836.711 901.453C837.695 899.438 839.086 897.891 840.883 896.812C842.695 895.719 844.758 895.172 847.07 895.172C850.539 895.172 853.266 896.266 855.25 898.453C857.25 900.641 858.25 903.742 858.25 907.758V910.523H842.102C842.32 912.18 842.977 913.508 844.07 914.508C845.18 915.508 846.578 916.008 848.266 916.008C850.875 916.008 852.914 915.062 854.383 913.172L857.711 916.898C856.695 918.336 855.32 919.461 853.586 920.273C851.852 921.07 849.93 921.469 847.82 921.469ZM847.047 900.656C845.703 900.656 844.609 901.109 843.766 902.016C842.938 902.922 842.406 904.219 842.172 905.906H851.594V905.367C851.562 903.867 851.156 902.711 850.375 901.898C849.594 901.07 848.484 900.656 847.047 900.656ZM861.062 908.133C861.062 904.18 861.945 901.031 863.711 898.688C865.492 896.344 867.922 895.172 871 895.172C873.469 895.172 875.508 896.094 877.117 897.938V885H883.914V921H877.797L877.469 918.305C875.781 920.414 873.609 921.469 870.953 921.469C867.969 921.469 865.57 920.297 863.758 917.953C861.961 915.594 861.062 912.32 861.062 908.133ZM867.836 908.625C867.836 911 868.25 912.82 869.078 914.086C869.906 915.352 871.109 915.984 872.688 915.984C874.781 915.984 876.258 915.102 877.117 913.336V903.328C876.273 901.562 874.812 900.68 872.734 900.68C869.469 900.68 867.836 903.328 867.836 908.625ZM903.859 921C903.547 920.391 903.32 919.633 903.18 918.727C901.539 920.555 899.406 921.469 896.781 921.469C894.297 921.469 892.234 920.75 890.594 919.312C888.969 917.875 888.156 916.062 888.156 913.875C888.156 911.188 889.148 909.125 891.133 907.688C893.133 906.25 896.016 905.523 899.781 905.508H902.898V904.055C902.898 902.883 902.594 901.945 901.984 901.242C901.391 900.539 900.445 900.188 899.148 900.188C898.008 900.188 897.109 900.461 896.453 901.008C895.812 901.555 895.492 902.305 895.492 903.258H888.719C888.719 901.789 889.172 900.43 890.078 899.18C890.984 897.93 892.266 896.953 893.922 896.25C895.578 895.531 897.438 895.172 899.5 895.172C902.625 895.172 905.102 895.961 906.93 897.539C908.773 899.102 909.695 901.305 909.695 904.148V915.141C909.711 917.547 910.047 919.367 910.703 920.602V921H903.859ZM898.258 916.289C899.258 916.289 900.18 916.07 901.023 915.633C901.867 915.18 902.492 914.578 902.898 913.828V909.469H900.367C896.977 909.469 895.172 910.641 894.953 912.984L894.93 913.383C894.93 914.227 895.227 914.922 895.82 915.469C896.414 916.016 897.227 916.289 898.258 916.289ZM913.844 908.086C913.844 905.57 914.328 903.328 915.297 901.359C916.266 899.391 917.656 897.867 919.469 896.789C921.297 895.711 923.414 895.172 925.82 895.172C929.242 895.172 932.031 896.219 934.188 898.312C936.359 900.406 937.57 903.25 937.82 906.844L937.867 908.578C937.867 912.469 936.781 915.594 934.609 917.953C932.438 920.297 929.523 921.469 925.867 921.469C922.211 921.469 919.289 920.297 917.102 917.953C914.93 915.609 913.844 912.422 913.844 908.391V908.086ZM920.617 908.578C920.617 910.984 921.07 912.828 921.977 914.109C922.883 915.375 924.18 916.008 925.867 916.008C927.508 916.008 928.789 915.383 929.711 914.133C930.633 912.867 931.094 910.852 931.094 908.086C931.094 905.727 930.633 903.898 929.711 902.602C928.789 901.305 927.492 900.656 925.82 900.656C924.164 900.656 922.883 901.305 921.977 902.602C921.07 903.883 920.617 905.875 920.617 908.578Z" fill="black"/>
<path d="M2.68676e-06 289.913C2.68676e-06 289.913 8.53977 242.553 74.6362 242.959L2.68676e-06 289.913Z" fill="#3F3D56"/>
<path d="M401.792 173.174C386.678 173.174 374.425 161.202 374.425 146.435C374.425 131.667 386.678 119.696 401.792 119.696C416.906 119.696 429.158 131.667 429.158 146.435C429.158 161.202 416.906 173.174 401.792 173.174Z" fill="#A0616A"/>
<path d="M396.838 112.846C402.121 111.596 407.802 111.388 412.92 113.163C418.191 114.992 422.53 118.815 425.721 123.251C428.913 127.686 431.056 132.734 432.976 137.804C434.096 140.568 434.963 143.422 435.566 146.332C436.255 150.21 436.122 154.183 435.177 158.011C434.231 161.84 432.492 165.444 430.064 168.609C430.873 166.554 428.836 164.314 426.602 163.869C424.368 163.425 422.092 164.177 419.889 164.747C416.007 165.75 411.995 166.205 407.977 166.096C406.438 166.054 404.824 165.905 403.545 165.08C399.535 162.497 401.657 155.823 398.32 152.468C397.129 151.27 395.43 150.71 393.895 149.959C388.37 147.255 384.729 141.797 383.01 136.062C381.933 132.467 379.259 122.141 381.538 118.8C383.597 115.78 393.34 113.673 396.838 112.846Z" fill="#2F2E41"/>
<path d="M326.7 116.682C328.74 115.988 330.901 115.691 333.06 115.807C335.218 115.924 337.332 116.452 339.279 117.362C346.482 120.635 359.22 128.566 358.736 143.578C358.062 164.464 350.654 178.17 350.654 178.17L352.001 220.594L358.736 297.61C358.736 297.61 391.737 323.717 378.94 330.244C366.144 336.77 344.593 298.915 344.593 298.915L327.755 255.186L321.694 212.762C321.694 212.762 311.592 168.38 321.694 148.8C321.694 148.8 310.023 122.581 326.7 116.682Z" fill="#A0616A"/>
<path d="M246.047 184.261C246.047 184.261 257.486 231.217 217.114 244.261C176.742 257.304 123.585 279.478 123.585 279.478L116.857 290.565L101.381 270.348L104.072 254.696L130.314 247.522C130.314 247.522 179.433 211 200.965 208.391L198.274 184.261H246.047Z" fill="#A0616A"/>
<path d="M138.59 146.435L124.276 169.144C124.276 169.144 76.9947 195.259 64.8367 212.886C52.6788 230.514 23.6348 249.447 23.6348 249.447L36.4682 278.826C36.4682 278.826 72.942 237.695 88.4772 233.778C104.012 229.861 172.907 176.325 172.907 176.325L138.59 146.435Z" fill="#A0616A"/>
<path d="M265.674 66.5133C270.922 67.3163 276.174 68.12 281.359 69.246C293.405 71.8623 304.989 76.1969 316.296 81.0148C332.121 87.7577 347.49 95.47 362.313 104.105C366.311 106.329 370.125 108.851 373.722 111.649C376.115 113.59 378.368 115.816 379.652 118.579C380.467 120.509 380.994 122.542 381.218 124.617C382.26 131.897 382.212 139.41 380.186 146.492C378.161 153.573 374.052 160.211 368.005 164.611C366.405 165.812 364.628 166.772 362.733 167.457C360.185 168.214 357.547 168.645 354.885 168.739C346.402 169.395 337.541 169.998 329.691 166.798C324.703 164.765 320.48 161.328 315.89 158.544C296.452 146.753 271.756 147.255 250.502 138.954C248.435 138.147 246.331 137.206 244.886 135.557C243.792 134.143 242.967 132.549 242.452 130.851C239.765 123.608 237.078 116.365 234.391 109.122C232.688 104.532 230.984 99.94 229.555 95.2629C228.06 90.3707 226.869 85.3964 225.679 80.4256C224.654 76.1481 223.599 71.668 223.993 67.246C224.574 60.7234 226.122 60.4586 232.273 61.4027C243.406 63.1115 254.54 64.815 265.674 66.5133Z" fill="#00629B"/>
<path d="M346.603 116.682C348.643 115.988 350.804 115.691 352.963 115.807C355.121 115.924 357.235 116.452 359.182 117.362C366.385 120.635 379.123 128.566 378.639 143.578C377.965 164.464 370.557 178.17 370.557 178.17L371.904 220.594L378.639 297.61C378.639 297.61 411.64 323.717 398.843 330.244C386.047 336.77 364.496 298.915 364.496 298.915L347.658 255.186L341.597 212.762C341.597 212.762 331.495 168.38 341.597 148.8C341.597 148.8 329.926 122.581 346.603 116.682Z" fill="#A0616A"/>
<path d="M229.935 61.2682C229.935 61.2682 169.66 56.0319 172.374 91.8358C175.088 127.64 195.442 189.483 195.442 189.483L247.684 192.087C247.684 192.087 254.468 149.773 244.97 135.452L229.935 61.2682Z" fill="#2F2E41"/>
<path d="M188.064 73.3913C188.064 73.3913 173.318 82.5217 165.275 100.783C157.231 119.043 133.101 154.913 133.101 154.913L172.648 182.304L202.14 152.957L188.064 73.3913Z" fill="#2F2E41"/>
<path d="M116.612 276.863C116.612 276.863 129.508 281.427 120.685 290.555C115.264 296.22 110.695 302.584 107.109 309.464C107.109 309.464 109.824 326.416 98.2855 325.764C86.7466 325.112 81.9953 302.292 84.7103 294.467C87.4254 286.643 90.8192 249.478 90.8192 249.478C90.8192 249.478 114.576 251.434 113.897 254.694C113.218 257.954 109.824 274.255 116.612 276.863Z" fill="#2F2E41"/>
<path d="M36.5533 263.795C36.5533 263.795 48.8396 269.656 45.4268 274.866C42.0139 280.076 31.0927 295.054 31.0927 295.054C31.0927 295.054 35.1882 314.591 23.5844 316.545C11.9807 318.499 5.15493 293.101 7.20265 287.891C9.25037 282.681 9.25037 262.493 9.25037 262.493C9.25037 262.493 8.56779 242.304 15.3935 242.304C22.2193 242.304 33.823 244.909 33.823 244.909C33.823 244.909 31.0927 263.144 36.5533 263.795Z" fill="#2F2E41"/>
<path d="M1503.79 283.055C1504.17 287.735 1506.08 292.578 1510.09 295.34C1514.11 298.101 1520.49 298.048 1523.56 294.339C1524.59 292.947 1525.35 291.392 1525.8 289.747C1528.38 282.037 1530.21 273.601 1527.38 265.967C1521 265.575 1513.59 262.738 1508.8 267.722C1504.93 271.782 1503.34 277.644 1503.79 283.055Z" fill="#3F3D56"/>
<path d="M1533.43 235.887C1532.58 242.691 1531.14 249.465 1531.29 256.315C1531.35 258.959 1531.64 261.58 1531.65 264.236C1531.66 271.132 1529.74 277.908 1526.07 283.874C1525.69 284.575 1525.17 285.205 1524.55 285.734C1523.08 286.857 1520.87 286.764 1519.22 285.904C1517.61 284.958 1516.31 283.618 1515.44 282.025C1510.83 274.561 1510.7 265.488 1508.87 257.023C1507.47 250.547 1505.02 244.27 1504.13 237.718C1503.55 233.501 1503.64 229.201 1502.72 225.036C1502.45 223.778 1501.67 221.889 1501.15 220.034C1500.68 218.379 1500.42 216.753 1500.9 215.635C1501.89 213.348 1505.12 214.237 1507.21 214.378C1514.61 214.895 1522.03 214.878 1529.43 214.325C1530.16 214.272 1530.99 214.243 1531.5 214.734C1531.72 214.983 1531.89 215.271 1532 215.583C1532.58 217.103 1533.03 218.669 1533.34 220.262C1534.36 225.358 1534.08 230.699 1533.43 235.887Z" fill="#FABDBD"/>
<g opacity="0.1">
<path opacity="0.1" d="M1530.58 214.325C1530.2 214.287 1529.82 214.287 1529.44 214.325C1525.9 214.594 1522.35 214.728 1518.8 214.746C1522.73 214.754 1526.66 214.613 1530.58 214.325Z" fill="black"/>
<path opacity="0.1" d="M1520.48 285.904C1518.87 284.958 1517.56 283.618 1516.69 282.025C1512.08 274.561 1511.95 265.488 1510.12 257.023C1508.72 250.547 1506.27 244.27 1505.38 237.718C1504.81 233.501 1504.89 229.201 1503.98 225.036C1503.7 223.778 1502.92 221.889 1502.4 220.034C1501.93 218.379 1501.67 216.753 1502.15 215.635C1502.36 215.177 1502.71 214.787 1503.15 214.516C1503.59 214.245 1504.11 214.105 1504.63 214.114C1503.07 214.015 1501.54 214.19 1500.92 215.635C1500.43 216.753 1500.69 218.379 1501.16 220.034C1501.68 221.889 1502.46 223.778 1502.74 225.036C1503.65 229.201 1503.57 233.501 1504.14 237.718C1505.03 244.276 1507.48 250.553 1508.88 257.023C1510.71 265.488 1510.84 274.573 1515.45 282.025C1516.32 283.618 1517.63 284.958 1519.24 285.904C1520.23 286.42 1521.36 286.637 1522.48 286.524C1521.78 286.437 1521.1 286.226 1520.48 285.904V285.904Z" fill="black"/>
</g>
<path d="M1556.85 271.765C1553.14 278.784 1553.75 288.729 1553.75 288.729C1554.37 312.129 1544.46 361.267 1544.46 361.267H1535.79C1535.79 361.267 1534.55 306.864 1535.79 302.184C1537.03 297.504 1535.17 281.124 1533.32 258.31C1531.93 241.345 1535.69 225.972 1537.71 219.227C1538.41 216.887 1538.89 215.606 1538.89 215.606C1538.89 215.606 1553.14 195.716 1561.19 205.076C1563.05 207.252 1564.03 211.646 1564.37 217.191C1565.47 235.49 1559.7 266.377 1556.85 271.765Z" fill="#FABDBD"/>
<path opacity="0.1" d="M1564.37 217.191C1564.03 211.646 1563.06 207.246 1561.19 205.076C1559.39 202.994 1557.29 202.362 1555.1 202.637C1556.79 202.902 1558.31 203.776 1559.33 205.076C1561.19 207.252 1562.17 211.646 1562.51 217.191C1563.62 235.49 1557.84 266.377 1554.99 271.765C1551.28 278.784 1551.9 288.729 1551.9 288.729C1552.52 312.129 1542.61 361.267 1542.61 361.267H1544.46C1544.46 361.267 1554.37 312.129 1553.75 288.729C1553.75 288.729 1553.14 278.784 1556.85 271.765C1559.7 266.377 1565.47 235.49 1564.37 217.191Z" fill="black"/>
<path d="M1531.28 359.132C1530.59 359.645 1529.99 360.262 1529.51 360.957C1528.4 362.935 1529.98 365.298 1531.66 366.872C1533.35 368.445 1535.38 370.13 1535.38 372.37C1535.38 374.172 1533.93 375.717 1532.32 376.676C1531.45 377.191 1530.36 377.846 1530.54 378.817C1530.6 379.063 1530.71 379.295 1530.87 379.501C1532.26 381.508 1534.71 382.684 1537.2 383.128C1539.69 383.573 1542.27 383.38 1544.8 383.187C1545.18 383.2 1545.55 383.079 1545.84 382.848C1546.02 382.614 1546.12 382.331 1546.12 382.04C1546.24 380.8 1546.16 379.49 1546.74 378.372C1547.54 376.846 1549.39 376.068 1550.45 374.699C1551.94 372.827 1551.74 370.224 1551.17 367.948C1549.93 362.993 1547.18 357.342 1543.04 353.908C1538.25 349.966 1534.49 356.283 1531.28 359.132Z" fill="#3F3D56"/>
<path d="M1550.05 64.2701C1553.51 59.3914 1552.61 52.5704 1549.08 47.715C1545.55 42.8597 1539.87 39.806 1534.02 37.8346C1526.13 35.1788 1517.43 34.2721 1509.32 36.2669C1502.87 37.8522 1497.07 41.169 1490.99 43.7313C1480.23 48.2658 1468.53 50.4647 1456.75 50.1661C1443.67 49.821 1429.35 46.6562 1418.38 53.4069C1398.3 65.7443 1407.23 99.3225 1388.23 113.076C1383.11 116.784 1376.66 118.405 1370.97 121.265C1365.27 124.126 1359.87 129.104 1360 135.2C1360.06 138.125 1361.43 140.915 1363.1 143.389C1370.22 154.054 1383.54 160.652 1396.87 160.53C1410.21 160.407 1423.22 153.709 1430.91 143.401C1432.83 140.821 1434.53 137.949 1437.32 136.229C1442.9 132.778 1450.25 135.194 1456.9 135.709C1471.71 136.849 1486.52 126.349 1489.47 112.572C1490.71 106.693 1490.49 99.6676 1495.5 95.9764C1499.55 92.9988 1505.24 93.6364 1510.37 93.1275C1519.74 92.209 1527.15 86.6926 1532.24 79.4856C1534.57 76.1805 1534.85 72.2318 1538.03 69.6286C1541.46 66.768 1546.77 68.8798 1550.05 64.2701Z" fill="#3F3D56"/>
<g opacity="0.1">
<path opacity="0.1" d="M1444.36 51.2951C1449.79 51.4359 1455.22 51.0438 1460.57 50.1252C1459.1 50.1661 1457.61 50.1661 1456.13 50.1252C1445.87 49.8561 1434.84 47.8554 1425.26 50.2656C1431.58 50.3241 1438.11 51.1314 1444.36 51.2951Z" fill="black"/>
<path opacity="0.1" d="M1424.93 137.393C1422.13 139.113 1420.43 141.985 1418.51 144.565C1412.59 152.414 1403.93 158.048 1394.06 160.483C1394.79 160.512 1395.51 160.53 1396.24 160.524C1409.59 160.401 1422.59 153.703 1430.28 143.395C1432.2 140.815 1433.9 137.943 1436.69 136.223L1437.18 135.943C1432.8 135.375 1428.51 135.176 1424.93 137.393Z" fill="black"/>
<path opacity="0.1" d="M1548.45 47.6975C1544.93 42.8655 1539.25 39.7885 1533.4 37.817C1525.5 35.1612 1516.8 34.2545 1508.7 36.2493C1508.51 36.2902 1508.33 36.3429 1508.15 36.3897C1512.75 36.6321 1517.29 37.5071 1521.63 38.987C1527.48 40.9584 1533.16 44.0354 1536.68 48.8674C1540.21 53.6994 1541.11 60.5671 1537.66 65.4225C1534.37 70.0498 1529.07 67.938 1525.59 70.7869C1522.41 73.39 1522.14 77.3387 1519.8 80.6439C1515.42 86.8272 1509.33 91.7586 1501.74 93.6305C1504.35 93.3381 1507.1 93.3731 1509.7 93.1158C1519.08 92.1973 1526.48 86.6809 1531.57 79.4739C1533.9 76.1687 1534.18 72.2201 1537.36 69.6169C1540.83 66.768 1546.14 68.8798 1549.43 64.2526C1552.89 59.3738 1551.99 52.5294 1548.45 47.6975Z" fill="black"/>
<path opacity="0.1" d="M1497.94 94.2857C1492.84 94.7888 1487.15 94.157 1483.07 97.1346C1478.06 100.826 1478.3 107.852 1477.04 113.731C1474.87 124.009 1466.03 132.485 1455.55 135.638L1456.28 135.703C1471.09 136.843 1485.91 126.343 1488.86 112.567C1490.1 106.687 1489.88 99.6617 1494.89 95.9705C1496.04 95.1576 1497.35 94.5617 1498.74 94.2155C1498.46 94.2214 1498.2 94.2623 1497.94 94.2857Z" fill="black"/>
</g>
<path d="M1647.59 43.3277C1647.59 43.3277 1632.72 71.407 1627.77 81.9367C1622.81 92.4665 1577.6 108.261 1571.41 108.846C1569.75 109.061 1568.2 109.765 1566.98 110.858C1563.48 113.783 1561.5 118.791 1561.5 118.791C1561.5 118.791 1563.97 134.585 1560.88 160.91C1560.82 161.419 1560.76 161.928 1560.71 162.419C1558.01 187.468 1563.66 193.377 1563.66 193.377C1563.66 193.377 1503.59 215.021 1505.44 186.942C1506.03 178.103 1505.94 171.644 1505.36 166.245C1504.73 160.717 1503.54 155.26 1501.81 149.947C1500.34 145.098 1498.59 139.78 1496.77 132.538C1495.9 128.925 1494.75 125.376 1493.33 121.92C1493.29 121.815 1493.24 121.71 1493.2 121.61C1490.11 114.351 1487.01 112.005 1485.24 111.244C1483.57 110.557 1481.97 109.711 1480.48 108.717C1474.76 104.816 1462.48 96.07 1451.54 85.7391C1436.67 71.6995 1421.81 38.3553 1421.81 38.3553C1421.81 38.3553 1417.47 19.0507 1427.38 3.25612C1437.29 -12.5385 1432.96 34.2604 1432.96 34.2604C1432.96 34.2604 1450.92 57.0748 1455.26 67.6046C1457.49 73.0215 1461.03 75.7944 1463.93 77.2334C1468.72 79.5879 1473.3 82.295 1477.64 85.3296C1480.57 87.4226 1483.65 89.3225 1486.86 91.0157C1493.79 94.5256 1502.08 98.486 1508.99 99.5272C1510.07 99.6956 1511.16 99.7837 1512.26 99.7905C1512.78 99.8061 1513.29 99.7087 1513.76 99.5058C1514.24 99.3029 1514.65 99 1514.98 98.6205C1516.84 96.5555 1516.8 92.1096 1516.37 88.4535C1516.14 86.5594 1515.8 84.6787 1515.35 82.82C1515.35 82.82 1535.48 70.8278 1534.86 85.4525C1534.77 87.0685 1534.93 88.6891 1535.33 90.2611C1535.66 91.704 1536.39 93.0383 1537.45 94.1278C1538.5 95.2173 1539.84 96.0228 1541.34 96.4619C1543.75 97.1315 1546.31 97.21 1548.77 96.6901C1549.53 96.5664 1550.28 96.3274 1550.96 95.9822C1552.82 94.8122 1571.4 89.5474 1576.97 88.9624C1582.55 88.3774 1610.42 75.5077 1610.42 75.5077L1640.77 35.7287C1640.77 35.7287 1640.15 12.3293 1652.54 2.96949C1664.93 -6.39029 1647.59 43.3277 1647.59 43.3277Z" fill="#FABDBD"/>
<g opacity="0.1">
<path opacity="0.1" d="M1560.71 158.909C1560.17 163.61 1559.93 168.338 1560 173.066C1560.06 169.977 1560.28 166.45 1560.71 162.419C1560.76 161.928 1560.82 161.419 1560.88 160.91C1561.96 151.901 1562.48 142.839 1562.43 133.772C1562.33 141.668 1561.81 149.554 1560.88 157.4C1560.84 157.909 1560.76 158.418 1560.71 158.909Z" fill="black"/>
<path opacity="0.1" d="M1516 82.4457C1515.58 82.6738 1515.38 82.8142 1515.38 82.8142C1515.98 85.3167 1516.38 87.8591 1516.57 90.419C1516.69 87.7495 1516.5 85.0751 1516 82.4457V82.4457Z" fill="black"/>
<path opacity="0.1" d="M1433.25 31.0839C1433.55 26.989 1434.01 19.6475 1433.92 13.119C1433.81 21.847 1432.99 30.7505 1432.99 30.7505L1433.25 31.0839Z" fill="black"/>
<path opacity="0.1" d="M1505.49 186.257C1505.49 186.485 1505.49 186.714 1505.44 186.942C1503.59 215.021 1563.66 193.377 1563.66 193.377C1562.96 192.48 1562.43 191.474 1562.1 190.405C1553.05 193.447 1507.57 207.592 1505.49 186.257Z" fill="black"/>
<path opacity="0.1" d="M1647.59 39.8178C1647.59 39.8178 1632.72 67.8971 1627.77 78.4268C1622.81 88.9566 1577.6 104.751 1571.41 105.336C1569.75 105.551 1568.2 106.255 1566.98 107.349C1563.48 110.273 1561.5 115.281 1561.5 115.281C1561.5 115.281 1561.65 116.234 1561.83 118.048C1562.52 116.545 1564.3 113.093 1566.98 110.858C1568.2 109.765 1569.75 109.061 1571.41 108.846C1577.6 108.261 1622.81 92.4665 1627.77 81.9368C1632.72 71.407 1647.59 43.3277 1647.59 43.3277C1647.59 43.3277 1658.06 13.2887 1656.91 4.30328C1655.96 15.8158 1647.59 39.8178 1647.59 39.8178Z" fill="black"/>
<path opacity="0.1" d="M1505.36 162.735C1504.73 157.208 1503.54 151.75 1501.81 146.437C1500.34 141.588 1498.59 136.27 1496.77 129.028C1495.9 125.415 1494.75 121.866 1493.33 118.411C1493.29 118.305 1493.24 118.2 1493.2 118.101C1490.11 110.841 1487.01 108.495 1485.24 107.735C1483.57 107.047 1481.97 106.201 1480.48 105.207C1474.76 101.306 1462.48 92.5601 1451.54 82.2292C1436.67 68.1896 1421.81 34.8454 1421.81 34.8454C1421.26 32.0305 1420.95 29.1781 1420.89 26.3163C1420.74 30.3487 1421.05 34.3848 1421.81 38.3553C1421.81 38.3553 1436.67 71.6995 1451.54 85.7392C1462.48 96.07 1474.76 104.816 1480.48 108.717C1481.98 109.713 1483.59 110.56 1485.28 111.245C1487.04 112.005 1490.13 114.351 1493.24 121.61C1493.28 121.71 1493.32 121.815 1493.37 121.921C1494.78 125.377 1495.92 128.925 1496.79 132.538C1498.61 139.78 1500.36 145.098 1501.83 149.947C1503.56 155.26 1504.75 160.717 1505.38 166.245C1505.64 168.69 1505.8 171.352 1505.84 174.347C1505.92 170.471 1505.76 166.594 1505.36 162.735Z" fill="black"/>
</g>
<path d="M1566.71 137.323C1565.76 138.8 1564.93 140.34 1564.23 141.933C1563.29 144.39 1563.29 147.063 1563.11 149.666C1562.87 153.32 1562.28 156.945 1561.35 160.5C1561.2 161.155 1561 161.797 1560.73 162.419C1560.55 162.838 1560.31 163.231 1560.01 163.589C1559.68 163.97 1559.29 164.304 1558.86 164.578C1558.19 164.996 1557.49 165.358 1556.76 165.66C1548.14 169.462 1538.73 172.82 1529.33 171.51C1525.35 170.853 1521.5 169.63 1517.91 167.883C1514.5 166.321 1510.65 164.466 1507.12 165.765C1506.58 166.025 1506 166.197 1505.39 166.274C1505.28 166.276 1505.16 166.266 1505.05 166.245C1503.88 166.034 1503.88 162.325 1503.62 161.232C1502.6 157.031 1502.45 153.627 1501.84 149.976C1501.52 147.958 1501.02 145.968 1500.35 144.027C1497.87 136.949 1497.12 129.402 1497.12 121.985C1497.12 121.616 1494.33 121.985 1493.4 121.95C1493.17 121.95 1493.04 121.915 1493.09 121.839C1493.15 121.766 1493.21 121.699 1493.28 121.64C1493.6 121.391 1493.98 121.213 1494.39 121.119L1495.12 120.914C1498.95 119.891 1503.17 119.464 1506.03 116.919C1509 114.292 1509.75 110.098 1509.62 106.26C1509.58 105.026 1508.94 102.031 1509.05 99.5447C1510.13 99.7131 1511.22 99.8012 1512.31 99.808C1512.83 99.8236 1513.35 99.7262 1513.82 99.5233C1514.29 99.3204 1514.71 99.0175 1515.04 98.638C1516.07 100.528 1516.96 102.482 1517.71 104.488C1518.77 106.933 1519.57 109.507 1521.11 111.718C1523.59 115.322 1528.16 117.691 1532.71 117.328C1537.25 116.966 1541.48 113.666 1542.3 109.431C1543.01 105.716 1541.35 100.37 1541.39 96.5087C1543.81 97.1782 1546.37 97.2567 1548.82 96.7368C1548.93 96.9752 1549.02 97.2194 1549.09 97.4681C1550.48 101.984 1552.34 107.167 1557.02 108.77C1560.04 109.8 1563.61 109.027 1566.41 110.525C1566.62 110.641 1566.83 110.77 1567.03 110.911C1567.67 111.364 1568.23 111.92 1568.67 112.555C1569.82 114.344 1570.5 116.365 1570.66 118.451C1571.37 124.974 1570 131.549 1566.71 137.323V137.323Z" fill="#50A700"/>
<path opacity="0.1" d="M1535.33 90.2553C1532.24 91.3801 1528.92 91.8025 1525.62 91.4885C1522.33 91.1745 1519.16 90.1328 1516.37 88.4476C1516.14 86.5536 1515.8 84.6729 1515.35 82.8142C1515.35 82.8142 1535.48 70.822 1534.86 85.4467C1534.77 87.0627 1534.93 88.6833 1535.33 90.2553V90.2553Z" fill="black"/>
<path d="M1527.73 90.419C1539.36 90.419 1548.79 81.5142 1548.79 70.5295C1548.79 59.5448 1539.36 50.64 1527.73 50.64C1516.1 50.64 1506.68 59.5448 1506.68 70.5295C1506.68 81.5142 1516.1 90.419 1527.73 90.419Z" fill="#FABDBD"/>
<path d="M1509.62 73.823C1509 70.1727 1508.05 65.5747 1511.28 63.4863C1512.44 62.8259 1513.77 62.5004 1515.12 62.5503C1521.81 62.486 1528.21 66.8909 1534.78 65.6039C1536.87 65.1904 1538.78 64.2156 1540.3 62.7968C1541.82 61.3779 1542.87 59.5755 1543.33 57.6061C1543.79 55.6368 1543.63 53.5845 1542.88 51.6959C1542.14 49.8073 1540.83 48.1629 1539.11 46.9604C1536.53 45.147 1533.27 44.4918 1530.11 43.8776C1521.8 42.263 1513.13 40.6543 1504.93 42.7076C1496.73 44.7609 1489.23 51.7047 1489.89 59.6722C1490.2 63.4863 1492.26 66.9494 1494.41 70.2019C1496.04 72.6706 1502.41 84.2416 1505.5 84.4171C1509.86 84.6569 1510.05 76.2097 1509.62 73.823Z" fill="#3F3D56"/>
<path d="M1561.81 183.432C1561.81 183.432 1519.07 193.377 1504.82 183.432C1504.82 183.432 1498.63 206.246 1500.49 217.946C1500.49 217.946 1530.84 219.701 1533.93 221.456C1533.93 221.456 1534.55 216.776 1537.65 219.116C1537.65 219.116 1548.18 207.416 1567.38 217.946C1567.38 217.946 1571.1 190.452 1561.81 183.432Z" fill="#50A700"/>
<path opacity="0.1" d="M1539.12 46.9604C1538.68 46.6588 1538.22 46.3852 1537.74 46.1414C1539.02 47.5137 1539.9 49.1789 1540.28 50.9704C1540.66 52.7618 1540.54 54.617 1539.93 56.3503C1539.31 58.0836 1538.23 59.6343 1536.78 60.8476C1535.33 62.0608 1533.58 62.894 1531.68 63.264C1525.11 64.5509 1518.72 60.146 1512.02 60.2103C1510.67 60.1604 1509.34 60.4859 1508.19 61.1463C1504.95 63.2347 1505.9 67.8327 1506.52 71.483C1506.93 73.8697 1506.76 82.3169 1502.41 82.0888H1502.34C1503.54 83.4635 1504.65 84.3936 1505.51 84.4287C1509.85 84.6569 1510.03 76.2389 1509.62 73.8229C1509 70.1726 1508.05 65.5747 1511.28 63.4863C1512.44 62.8259 1513.77 62.5004 1515.12 62.5503C1521.81 62.4859 1528.21 66.8909 1534.78 65.6039C1536.87 65.1904 1538.78 64.2156 1540.3 62.7967C1541.82 61.3779 1542.87 59.5754 1543.33 57.6061C1543.78 55.6368 1543.63 53.5844 1542.88 51.6958C1542.14 49.8073 1540.83 48.1629 1539.11 46.9604H1539.12Z" fill="black"/>
<path d="M1097.15 1311.6C1138.65 1311.6 1172.29 1307.57 1172.29 1302.6C1172.29 1297.63 1138.65 1293.6 1097.15 1293.6C1055.65 1293.6 1022.01 1297.63 1022.01 1302.6C1022.01 1307.57 1055.65 1311.6 1097.15 1311.6Z" fill="#E6E6E6"/>
<path d="M1385.53 932.13C1385.71 932.235 1385.95 932.314 1386.16 932.407C1386.5 932.384 1386.9 932.357 1387.25 932.333L1385.53 932.13Z" fill="#7F77FF"/>
<path d="M1391.65 930.914L1392.44 932.455C1394.2 932.179 1394.57 930.447 1391.65 930.914Z" fill="#7F77FF"/>
<path d="M1086.46 870.226C1086.46 870.226 1072.82 897.475 1051.75 903.66C1030.69 909.845 1102.55 903.682 1102.55 903.682C1102.55 903.682 1098.84 883.859 1103.8 881.383C1108.75 878.908 1086.46 870.226 1086.46 870.226Z" fill="#A0616A"/>
<path d="M1064.46 823.393C1063.72 816.935 1067.26 811.227 1072.35 810.644C1072.41 810.638 1072.47 810.641 1072.53 810.636C1071.89 810.542 1071.24 810.531 1070.6 810.603C1065.5 811.186 1061.97 816.894 1062.71 823.352C1063.44 829.736 1068.07 834.455 1073.1 833.998C1068.79 833.369 1065.1 829.027 1064.46 823.393Z" fill="#2F2E41"/>
<path d="M1069.03 832.15C1062.87 830.063 1059.22 824.431 1060.86 819.571C1060.88 819.516 1060.91 819.466 1060.93 819.412C1060.57 819.948 1060.29 820.528 1060.08 821.138C1058.43 825.998 1062.09 831.629 1068.24 833.717C1074.33 835.78 1080.57 833.603 1082.31 828.857C1079.9 832.491 1074.4 833.971 1069.03 832.15Z" fill="#2F2E41"/>
<path d="M1026.37 951.523L1028.17 1004L1056.64 1070.91C1056.64 1070.91 1049.19 1105.59 1064.05 1104.36C1078.92 1103.13 1065.31 1069.67 1065.31 1069.67L1051.71 999.051L1049.26 940.824L1026.37 951.523Z" fill="#A0616A"/>
<path d="M1106.27 888.817C1121.32 888.824 1133.53 876.627 1133.54 861.575C1133.54 846.522 1121.35 834.315 1106.29 834.308C1091.24 834.301 1079.03 846.498 1079.03 861.551C1079.02 876.603 1091.22 888.811 1106.27 888.817Z" fill="#A0616A"/>
<path d="M1128.56 908.649L1101.71 897.907C1101.71 897.907 1096.36 898.724 1081.49 899.956C1066.62 901.188 1060.02 900.017 1060.02 900.017C1060.02 900.017 1028.21 911.082 1029.45 917.277C1030.69 923.472 1044.27 1021.35 1050.47 1016.39C1056.66 1011.44 1060.38 1010.2 1060.38 1010.2L1128.52 1004.04L1128.56 908.649Z" fill="#EB4034"/>
<path d="M1034.41 914.802L1030.37 914.8C1030.37 914.8 1025.73 917.275 1025.73 924.709C1025.73 932.142 1022 954.439 1022 954.439L1041.82 954.448L1034.41 914.802Z" fill="#EB4034"/>
<path d="M1070.95 926.587L1055.99 902.409C1055.65 901.858 1055.16 901.417 1054.58 901.138C1053.99 900.858 1053.34 900.752 1052.7 900.832L1048.8 901.318C1048.32 901.378 1047.86 901.54 1047.45 901.793C1047.03 902.046 1046.68 902.385 1046.41 902.786C1046.14 903.187 1045.96 903.642 1045.88 904.119C1045.8 904.596 1045.83 905.084 1045.95 905.551L1053.6 934.012C1053.6 934.012 1065.69 984.29 1054.05 1011.18L1053.56 1023.21C1053.56 1023.21 1042.39 1060.37 1044.86 1088.86C1047.32 1117.36 1048.55 1142.14 1048.55 1142.14C1048.55 1142.14 1042.35 1160.72 1044.82 1166.91C1045.57 1168.77 1045.42 1171.52 1044.84 1174.46C1041.34 1192.4 1040.43 1210.76 1040.92 1229.03L1041.08 1235.05C1041.08 1235.05 1032.4 1242.48 1039.84 1243.72C1047.27 1244.96 1070.81 1247.45 1070.81 1247.45C1070.81 1247.45 1075.76 1238.78 1073.29 1237.54L1080.74 1196.66C1080.74 1196.66 1093.13 1179.32 1091.9 1168.17C1091.9 1168.17 1095.63 1149.59 1091.91 1140.92L1093.18 1086.41L1098.1 1152.07L1090.63 1233.83C1090.63 1233.83 1080.72 1241.26 1086.91 1243.74C1093.11 1246.22 1131.5 1258.63 1131.51 1252.43C1131.51 1246.24 1129.03 1243.76 1129.03 1243.76L1145.21 1076.52L1136.57 1007.14C1136.57 1007.14 1078.35 1002.16 1083.33 936.503C1083.33 936.503 1097.59 906.923 1111.65 901.347C1111.81 901.288 1111.95 901.179 1112.05 901.038C1112.14 900.896 1112.19 900.728 1112.18 900.558C1112.17 900.388 1112.11 900.224 1112.01 900.09C1111.9 899.956 1111.76 899.858 1111.6 899.811L1105.89 898.177C1105.73 898.131 1105.57 898.134 1105.41 898.186C1102.94 899.024 1081.45 906.763 1070.95 926.587Z" fill="#2F2E41"/>
<path d="M1099.4 1242.54L1099.2 1244.32C1097.87 1255.67 1094.18 1266.62 1088.37 1276.46C1085.6 1281.22 1083.47 1286.61 1084.53 1290.86C1087.01 1300.77 1085.77 1304.48 1085.77 1304.48H1105.6V1300.77L1116.66 1303.78C1119.13 1304.5 1121.76 1304.42 1124.18 1303.55C1126.66 1302.63 1129.13 1300.77 1129.13 1297.05C1129.13 1293.95 1126.77 1291.07 1124.01 1288.76C1118.19 1283.99 1113.97 1277.55 1111.93 1270.3L1111.79 1269.8L1119.22 1242.54L1099.4 1242.54Z" fill="#2F2E41"/>
<path d="M1047.99 1243.16L1047.79 1244.94C1046.46 1256.29 1042.77 1267.24 1036.96 1277.08C1034.18 1281.84 1032.06 1287.23 1033.12 1291.48C1035.6 1301.39 1034.36 1305.1 1034.36 1305.1H1054.18V1301.39L1065.25 1304.4C1067.72 1305.12 1070.35 1305.04 1072.77 1304.17C1075.24 1303.24 1077.72 1301.39 1077.72 1297.67C1077.72 1294.57 1075.36 1291.69 1072.59 1289.38C1066.78 1284.61 1062.56 1278.17 1060.52 1270.92L1060.38 1270.41L1067.81 1243.16H1047.99Z" fill="#2F2E41"/>
<path d="M1111.78 866.164C1111.78 866.164 1131.31 854.893 1138.87 854.213C1138.87 854.213 1141.08 849.258 1138.7 844.488C1138.7 844.488 1137.56 829.188 1118.46 829.774C1118.46 829.774 1095.91 817.546 1088.34 822.531C1080.76 827.516 1063.89 851.446 1071.01 865.755C1071.01 865.755 1062.77 869.894 1062.38 867.664C1061.99 865.434 1055.87 871.421 1063.94 876.584C1063.94 876.584 1052.64 888.021 1063.62 895.187C1063.62 895.187 1063.12 885.039 1069.5 881.973C1075.87 878.908 1070.29 882.128 1070.29 882.128C1070.29 882.128 1059.38 895.795 1075.67 901.124C1075.67 901.124 1069.59 894.196 1075.71 888.21C1075.71 888.21 1073.81 902.198 1085.08 903.676C1085.08 903.676 1079.27 895.364 1082.33 892.371C1082.33 892.371 1083.62 902.674 1089.98 903.914L1094.75 904.843L1096.37 896.544C1096.37 896.544 1091.83 907.145 1102.43 907.776C1102.43 907.776 1097.31 891.702 1104.11 882.257C1110.9 872.812 1111.78 866.164 1111.78 866.164Z" fill="#2F2E41"/>
<path d="M1081.49 831.235C1085.42 826.055 1085.29 819.343 1081.2 816.243C1077.11 813.143 1070.61 814.829 1066.68 820.009C1062.76 825.189 1062.89 831.901 1066.98 835.001C1071.07 838.101 1077.57 836.415 1081.49 831.235Z" fill="#2F2E41"/>
<path d="M1084.2 825.032C1081.74 825.965 1079.59 827.586 1078.02 829.703C1076.63 831.518 1075.7 833.648 1075.31 835.906C1077.78 834.973 1079.92 833.352 1081.49 831.235C1082.89 829.42 1083.82 827.29 1084.2 825.032V825.032Z" fill="#6C63FF"/>
<path d="M1111.86 947.845L1113.65 1000.32L1142.12 1067.23C1142.12 1067.23 1134.67 1101.91 1149.54 1100.68C1164.4 1099.45 1150.79 1065.99 1150.79 1065.99L1137.2 995.372L1134.74 937.145L1111.86 947.845Z" fill="#A0616A"/>
<path d="M1122.37 911.124L1123.05 906.444L1128.56 908.649L1145.89 935.911L1109.96 954.478L1122.37 911.124Z" fill="#EB4034"/>
<path d="M1247.42 808.869L1245.69 806.864C1244.68 805.694 1243.31 805.037 1241.89 805.036C1240.46 805.036 1239.09 805.692 1238.08 806.86L1204.5 845.72L1170.96 806.831C1169.95 805.661 1168.58 805.004 1167.16 805.003C1165.73 805.003 1164.36 805.659 1163.35 806.827L1161.62 808.831C1161.12 809.409 1160.72 810.096 1160.45 810.852C1160.18 811.609 1160.04 812.419 1160.04 813.238C1160.04 814.056 1160.18 814.867 1160.45 815.623C1160.72 816.38 1161.12 817.067 1161.62 817.646L1195.16 856.535L1161.58 895.395C1161.08 895.973 1160.69 896.66 1160.41 897.416C1160.14 898.173 1160 898.983 1160 899.802C1160 900.62 1160.14 901.431 1160.41 902.187C1160.68 902.944 1161.08 903.631 1161.58 904.21L1163.31 906.215C1164.32 907.384 1165.68 908.042 1167.11 908.042C1168.54 908.043 1169.91 907.387 1170.92 906.218L1204.49 867.359L1238.04 906.248C1239.05 907.417 1240.41 908.075 1241.84 908.075C1243.27 908.076 1244.64 907.42 1245.65 906.251L1247.38 904.248C1248.39 903.079 1248.96 901.494 1248.96 899.841C1248.96 898.188 1248.39 896.602 1247.38 895.433L1213.84 856.543L1247.42 817.684C1248.43 816.515 1248.99 814.93 1248.99 813.277C1249 811.624 1248.43 810.038 1247.42 808.869V808.869Z" fill="#EB4034"/>
<path d="M627.5 384.5C1003.9 302.9 1098 299.167 1098 307.5" stroke="#222222" stroke-width="10"/>
<path d="M638.5 437C836.5 462 1080 359.672 1080 368" stroke="#222222" stroke-width="10"/>
<path d="M691 812.5C652.5 846.5 500 605.402 500 637.5" stroke="#222222" stroke-width="10"/>
<path d="M748 767C698 689.5 614 552.578 614 585.676" stroke="#222222" stroke-width="10"/>
<path d="M959.5 808C1196 739.5 1109.5 601 1300.5 510" stroke="#222222" stroke-width="10"/>
<path d="M886.5 758C984.5 669 1023.84 563.45 1193 481" stroke="#222222" stroke-width="10"/>
</svg>
