<svg width="881" height="738" viewBox="0 0 881 738" fill="none" xmlns="http://www.w3.org/2000/svg">
<path d="M207.448 363L188 617H207.448L235 363H207.448Z" fill="#0BE254"/>
<path d="M744.92 354L771 612H739.955L715 354H744.92Z" fill="url(#paint0_linear)"/>
<path d="M744.552 355L764 609H744.552L717 355H744.552Z" fill="#0BE254"/>
<path d="M284.862 352L265 606H284.862L313 352H284.862Z" fill="#0BE254"/>
<path d="M673.759 355L699 620H668.813L638 355H673.759Z" fill="url(#paint1_linear)"/>
<path d="M672.552 363L692 617H672.552L645 363H672.552Z" fill="#0BE254"/>
<path d="M756 349H166V376H756V349Z" fill="url(#paint2_linear)"/>
<path d="M645 349H171V373H645V349Z" fill="#0BE254"/>
<path d="M753 349H645V373H753V349Z" fill="#00C142"/>
<path d="M569 200H362V326H569V200Z" fill="white"/>
<path d="M502 315H434V349H502V315Z" fill="url(#paint3_linear)"/>
<path d="M494 315H437V349H494V315Z" fill="white"/>
<path d="M576 200H569V326H576V200Z" fill="#F5F5F5"/>
<path d="M498 315H493V349H498V315Z" fill="#F5F5F5"/>
<path d="M474 245H457V261H474V245Z" fill="url(#paint4_linear)"/>
<path d="M472 246H459V259H472V246Z" fill="#F5F5F5"/>
<path d="M144.84 232L252 276.72L215.931 344L110 305.669L144.84 232Z" fill="#FC63FF"/>
<path d="M179 446H149V470H179V446Z" fill="#F8C198"/>
<path d="M218 446H188V470H218V446Z" fill="#F8C198"/>
<path d="M215.5 184C237.315 184 255 166.763 255 145.5C255 124.237 237.315 107 215.5 107C193.685 107 176 124.237 176 145.5C176 166.763 193.685 184 215.5 184Z" fill="#F8C198"/>
<path d="M252 201H217.871L213 163H242.258L252 201Z" fill="#F8C198"/>
<path d="M272.527 307C272.527 307 292.328 316.628 277.477 340.7C262.626 364.771 163.884 355.142 163.884 355.142C163.884 355.142 188.635 412.768 183.685 456H144.115C144.115 456 132.268 357.02 122.548 347.391C109.958 335.147 119.479 311.734 144.181 316.532C168.883 321.33 272.527 307 272.527 307Z" fill="#263238"/>
<g opacity="0.2">
<path opacity="0.2" d="M171.937 353.998C171.937 353.998 189.224 355.602 210.372 355.875C195.024 356.035 180.794 355.265 172.216 354.672L171.937 353.998Z" fill="white"/>
<path opacity="0.2" d="M163.326 316.499C201.729 315.777 272.077 305.973 272.077 305.973C272.587 306.239 273.081 306.534 273.556 306.856C253.524 309.519 192.724 317.173 163.326 316.499Z" fill="white"/>
<path opacity="0.2" d="M142.029 315.216C125.285 317.703 120.108 336.075 130.724 346.424C140.452 355.923 152.267 454.844 152.267 454.844H144.215C144.215 454.844 132.4 355.923 122.721 346.424C110.495 334.55 119.073 312.167 142.029 315.216Z" fill="white"/>
</g>
<path d="M188 465C188 465 110 465 110 474.6C110 484.2 119.772 489 119.772 489H188V465Z" fill="#263238"/>
<path opacity="0.2" d="M188 465V467.665C174.242 467.762 111.705 468.721 111.705 477.414C111.741 480.94 113.051 484.339 115.401 487C113.48 485.555 111.91 483.708 110.803 481.592C109.696 479.476 109.08 477.144 109 474.765C109 465 188 465 188 465Z" fill="white"/>
<path d="M311.57 307C311.57 307 331.29 316.628 316.5 340.7C301.71 364.771 203.373 355.142 203.373 355.142C203.373 355.142 228.023 412.768 223.093 456H183.669C183.669 456 178.739 355.142 163.949 345.53C149.159 335.917 159.019 311.83 183.669 316.644C208.319 321.459 311.57 307 311.57 307Z" fill="#263238"/>
<path d="M228 465C228 465 149 465 149 474.6C149 484.2 158.898 489 158.898 489H228V465Z" fill="#263238"/>
<path d="M245.242 187H257.184C261.892 187 265.254 198.516 268.666 201.747C276.311 209.089 271.225 221.948 291.632 260.367C310.792 296.483 317.271 293.332 323.751 305.952C330.231 318.572 208.103 317.996 208.103 317.996C208.103 317.996 214.32 293.812 213.024 276.074C210.334 239.622 200.623 227.003 213.582 214.367C213.549 214.367 227.443 187 245.242 187Z" fill="#FF5252"/>
<path d="M147.2 250L131 284.668L141.8 290L158 255.332L147.2 250Z" fill="white"/>
<path opacity="0.2" d="M215.009 110.016C216.342 110.014 217.674 110.078 219 110.209C209.38 111.163 200.462 115.61 193.976 122.687C187.491 129.764 183.899 138.966 183.899 148.508C183.899 158.05 187.491 167.252 193.976 174.329C200.462 181.406 209.38 185.853 219 186.807C217.674 186.938 216.342 187.002 215.009 187C204.663 187 194.741 182.944 187.425 175.724C180.11 168.503 176 158.711 176 148.5C176 138.289 180.11 128.497 187.425 121.276C194.741 114.056 204.663 110 215.009 110V110.016Z" fill="white"/>
<path d="M172.956 103.883C176.878 100.184 182.352 98.6717 187.663 97.2884L211.341 91.0474C218.384 89.1977 225.509 87.3158 232.797 87.2997C237.241 87.3109 241.655 88.0222 245.87 89.4068C247.831 88.5704 250.037 87.9592 251.492 87.4927C257.347 85.3479 263.442 83.9007 269.647 83.182C275.884 82.4904 282.183 83.7812 287.622 86.8654C290.628 88.7211 293.137 91.2607 294.938 94.2703C296.738 97.2799 297.777 100.671 297.968 104.159C298.159 107.647 297.495 111.128 296.033 114.311C294.571 117.493 292.353 120.283 289.567 122.445C285.74 125.223 281.299 127.07 276.608 127.834C277.361 135.172 276.4 142.583 273.797 149.5C271.235 155.814 267.714 161.709 263.355 166.984C260.528 170.539 257.325 174.013 253.126 175.847C248.926 177.681 243.517 177.456 240.282 174.239C237.896 171.874 237.013 168.4 236.474 165.119C234.006 152.122 231.572 137.179 220.133 130.246C212.959 125.903 204.968 126.322 196.961 126.37C189.77 126.351 182.674 124.752 176.191 121.689C174.224 120.93 172.45 119.755 170.995 118.247C167.4 114.194 169.034 107.583 172.956 103.883Z" fill="#FCCC63"/>
<g opacity="0.2">
<path opacity="0.2" d="M287.852 92.1028C282.383 89.0261 276.049 87.7385 269.776 88.4284C263.537 89.1454 257.408 90.5891 251.52 92.7286C250.057 93.21 247.839 93.8036 245.867 94.638C241.628 93.2568 237.19 92.5472 232.721 92.536C225.392 92.536 218.227 94.4134 211.145 96.2746L187.334 102.5C182.059 103.88 176.554 105.388 172.545 109.079C170.779 110.777 169.533 112.922 168.946 115.273C168.478 113.225 168.564 111.093 169.195 109.087C169.826 107.082 170.98 105.271 172.545 103.832C176.489 100.142 181.993 98.6333 187.334 97.2534L211.145 91.0277C218.227 89.1825 225.392 87.3052 232.721 87.2892C237.19 87.3003 241.628 88.0099 245.867 89.3911C247.839 88.5567 250.057 87.947 251.52 87.4817C257.408 85.3421 263.537 83.8985 269.776 83.1815C276.049 82.4917 282.383 83.7792 287.852 86.8559C290.852 88.7305 293.357 91.2692 295.165 94.2662C296.972 97.2631 298.03 100.634 298.254 104.105C298.308 105.354 298.248 106.605 298.073 107.843C297.645 104.652 296.508 101.59 294.743 98.871C292.977 96.1524 290.626 93.8426 287.852 92.1028Z" fill="white"/>
<path opacity="0.2" d="M276.99 132.923C276.99 133.629 276.99 134.319 276.99 135.025C276.99 134.335 276.99 133.661 276.842 132.971L276.99 132.923Z" fill="white"/>
</g>
<path opacity="0.2" d="M213.007 276.768C210.324 240.032 200.641 227.314 213.563 214.58C213.563 214.58 227.402 187 245.166 187H257.074C257.887 187.118 258.663 187.415 259.343 187.87C260.023 188.325 260.589 188.926 261 189.627H253.197C235.433 189.627 221.595 217.207 221.595 217.207C208.672 229.941 218.323 242.66 221.039 279.395C222.085 293.725 218.307 312.23 216.769 319C211.371 319 208.116 319 208.116 319C208.116 319 214.283 294.628 213.007 276.768Z" fill="white"/>
<path d="M217 253H260V224H217V253Z" fill="#FF5252"/>
<g opacity="0.2">
<path opacity="0.2" d="M202.682 316.499C241.085 315.777 311.433 305.973 311.433 305.973C311.943 306.239 312.437 306.534 312.912 306.856C292.864 309.519 232.08 317.173 202.682 316.499Z" fill="white"/>
<path opacity="0.2" d="M181.468 315.232C164.608 317.735 159.415 336.235 171.937 344.386C186.726 354.014 191.656 454.844 191.656 454.844H183.522C183.522 454.844 178.592 353.998 163.803 344.386C149.539 335.064 158.413 312.151 181.468 315.232Z" fill="white"/>
<path opacity="0.2" d="M211.276 353.998C211.276 353.998 228.563 355.602 249.712 355.875C234.364 356.035 220.133 355.265 211.556 354.672L211.276 353.998Z" fill="white"/>
</g>
<path d="M257 244V289.987C257.003 293.942 256.188 297.857 254.605 301.497C253.021 305.136 250.701 308.426 247.784 311.168C244.866 313.911 241.412 316.049 237.629 317.454C233.845 318.86 229.809 319.504 225.764 319.349C204.968 318.562 180.982 318.256 178.237 320.955C175.951 323.187 170.51 327.476 165.315 331.427C164.139 332.322 162.722 332.86 161.236 332.976C159.751 333.092 158.264 332.781 156.958 332.081C155.652 331.38 154.584 330.321 153.887 329.035C153.19 327.749 152.893 326.291 153.034 324.842C153.692 317.116 156.174 308.892 163.457 306.531C169.326 304.619 179.897 303.463 190.386 302.772C199.117 302.174 207.289 298.357 213.25 292.095C219.211 285.833 222.514 277.593 222.493 269.041V244H257Z" fill="#F8C198"/>
<path opacity="0.2" d="M153.029 324.852C153.687 317.122 156.169 308.894 163.451 306.531C169.319 304.619 179.889 303.462 190.376 302.771C199.107 302.172 207.278 298.354 213.238 292.088C219.198 285.823 222.502 277.578 222.48 269.022V244H257V246.62H227.872V271.642C227.893 280.198 224.59 288.442 218.63 294.708C212.67 300.973 204.498 304.792 195.768 305.39C185.215 306.081 174.695 307.239 168.843 309.151C161.561 311.529 159.062 319.758 158.421 327.472C158.329 328.466 158.444 329.468 158.757 330.418C159.071 331.367 159.577 332.246 160.246 333C159.219 332.944 158.214 332.686 157.291 332.243C156.369 331.799 155.546 331.179 154.873 330.419C154.2 329.66 153.69 328.775 153.373 327.819C153.057 326.862 152.94 325.854 153.029 324.852Z" fill="white"/>
<path opacity="0.2" d="M228 465V467.665C214.242 467.762 151.705 468.721 151.705 477.414C151.741 480.94 153.051 484.339 155.401 487C153.48 485.555 151.91 483.708 150.803 481.592C149.696 479.476 149.08 477.144 149 474.765C149 465 228 465 228 465Z" fill="white"/>
<defs>
<linearGradient id="paint0_linear" x1="49099" y1="172440" x2="49099" y2="130902" gradientUnits="userSpaceOnUse">
<stop stop-color="#808080" stop-opacity="0.25"/>
<stop offset="0.54" stop-color="#808080" stop-opacity="0.12"/>
<stop offset="1" stop-color="#808080" stop-opacity="0.1"/>
</linearGradient>
<linearGradient id="paint1_linear" x1="50566.5" y1="178435" x2="50566.5" y2="134710" gradientUnits="userSpaceOnUse">
<stop stop-color="#808080" stop-opacity="0.25"/>
<stop offset="0.54" stop-color="#808080" stop-opacity="0.12"/>
<stop offset="1" stop-color="#808080" stop-opacity="0.1"/>
</linearGradient>
<linearGradient id="paint2_linear" x1="408741" y1="14389" x2="408741" y2="13930" gradientUnits="userSpaceOnUse">
<stop stop-color="#808080" stop-opacity="0.25"/>
<stop offset="0.54" stop-color="#808080" stop-opacity="0.12"/>
<stop offset="1" stop-color="#808080" stop-opacity="0.1"/>
</linearGradient>
<linearGradient id="paint3_linear" x1="47796" y1="17417" x2="47796" y2="16703" gradientUnits="userSpaceOnUse">
<stop stop-color="#808080" stop-opacity="0.25"/>
<stop offset="0.54" stop-color="#808080" stop-opacity="0.12"/>
<stop offset="1" stop-color="#808080" stop-opacity="0.1"/>
</linearGradient>
<linearGradient id="paint4_linear" x1="12272" y1="7413" x2="12272" y2="7253" gradientUnits="userSpaceOnUse">
<stop stop-color="#808080" stop-opacity="0.25"/>
<stop offset="0.54" stop-color="#808080" stop-opacity="0.12"/>
<stop offset="1" stop-color="#808080" stop-opacity="0.1"/>
</linearGradient>
</defs>
</svg>
